<?xml version="1.0" encoding="utf-8"?>
<!-- Generator: Adobe Illustrator 25.2.1, SVG Export Plug-In . SVG Version: 6.00 Build 0)  -->
<svg version="1.1" id="Layer_1" xmlns="http://www.w3.org/2000/svg" xmlns:xlink="http://www.w3.org/1999/xlink" x="0px" y="0px"
	 viewBox="0 0 150.62 81.17" style="enable-background:new 0 0 150.62 81.17;" xml:space="preserve">
<style type="text/css">
	.st0{fill:#FFFFFF;}
	.st1{fill:#E9776D;}
	.st2{fill:#00415C;}
</style>
<g>
	<path class="st0" d="M8.44,80.24c7.8,2.41,23.25,0.06,41.89-6.1c-13.81,4.45-25.94,6.77-34.84,6.74
		C12.83,80.88,10.47,80.66,8.44,80.24z"/>
</g>
<g>
	<path class="st0" d="M142.48,10.89c-3.04-6.57-17.51-7.2-37.01-2.78c-0.42,1.18-0.93,2.31-1.53,3.39
		c8.41-2.03,15.83-3.11,21.66-3.11c6.96,0,11.67,1.52,13.16,4.73c1.1,2.38,0.3,5.63-2.19,9.47l1.69,0
		C142.14,17.92,143.88,13.93,142.48,10.89z"/>
	<path class="st1" d="M79.17,0C65.93,0,55.2,10.73,55.2,23.97h27.71c9.07,0,16.96-5.04,21.03-12.47c0.59-1.08,1.1-2.21,1.53-3.39
		c0.91-2.53,1.41-5.26,1.41-8.11H79.17z"/>
</g>
<g>
	<path class="st0" d="M14.86,51.64C3.19,61.48-1.87,69.87,0.62,75.26c1.16,2.51,3.87,4.15,7.82,4.98c-2.45-0.76-4.17-1.98-4.97-3.71
		c-2.15-4.65,1.41-12.91,12.36-22.15c9.65-8.14,22.94-16.55,38-24.12l0.33-3.44C38.57,34.57,24.81,43.25,14.86,51.64z"/>
	<polygon class="st2" points="63.13,26.72 54.19,26.72 54.16,27.01 53.83,30.45 49.07,80.34 68.24,80.34 	"/>
</g>
<g>
	<path class="st0" d="M83.12,37.74h-6.33v-11h6.33v1.91h-4v2.41h3.72v1.91h-3.72v2.84h4V37.74z"/>
	<path class="st0" d="M91.19,37.74l-0.31-1.08h-0.12c-0.25,0.39-0.59,0.69-1.05,0.91c-0.45,0.21-0.97,0.32-1.54,0.32
		c-0.99,0-1.73-0.26-2.23-0.79c-0.5-0.53-0.75-1.29-0.75-2.28v-5.48h2.29v4.91c0,0.61,0.11,1.06,0.32,1.37
		c0.22,0.3,0.56,0.46,1.03,0.46c0.64,0,1.11-0.21,1.39-0.64c0.29-0.43,0.43-1.14,0.43-2.13v-3.96h2.29v8.41H91.19z"/>
	<path class="st0" d="M100.06,29.17c0.31,0,0.57,0.02,0.77,0.07l-0.17,2.15c-0.19-0.05-0.41-0.08-0.68-0.08
		c-0.73,0-1.3,0.19-1.71,0.56c-0.41,0.38-0.61,0.9-0.61,1.58v4.28h-2.29v-8.41h1.74l0.34,1.41h0.11c0.26-0.47,0.61-0.85,1.06-1.14
		C99.05,29.31,99.54,29.17,100.06,29.17z"/>
	<path class="st0" d="M110,33.51c0,1.37-0.36,2.44-1.08,3.21c-0.72,0.77-1.73,1.16-3.02,1.16c-0.81,0-1.52-0.18-2.14-0.53
		c-0.62-0.35-1.09-0.86-1.42-1.52c-0.33-0.66-0.5-1.43-0.5-2.32c0-1.37,0.36-2.44,1.08-3.2c0.72-0.76,1.73-1.14,3.02-1.14
		c0.81,0,1.52,0.18,2.14,0.53c0.62,0.35,1.09,0.85,1.42,1.51C109.84,31.86,110,32.63,110,33.51z M104.19,33.51
		c0,0.83,0.14,1.46,0.41,1.89c0.27,0.43,0.72,0.64,1.33,0.64c0.61,0,1.05-0.21,1.32-0.64c0.27-0.42,0.4-1.05,0.4-1.89
		c0-0.83-0.14-1.46-0.41-1.87c-0.27-0.42-0.71-0.62-1.33-0.62c-0.61,0-1.05,0.21-1.32,0.62C104.32,32.05,104.19,32.68,104.19,33.51z
		"/>
	<path class="st0" d="M116.52,37.89c-0.99,0-1.76-0.36-2.33-1.08h-0.12c0.08,0.7,0.12,1.11,0.12,1.22v3.41h-2.29V29.32h1.87
		l0.32,1.09h0.11c0.54-0.83,1.33-1.25,2.38-1.25c0.99,0,1.77,0.38,2.33,1.15c0.56,0.77,0.84,1.83,0.84,3.2
		c0,0.9-0.13,1.68-0.39,2.34c-0.26,0.66-0.64,1.17-1.12,1.51C117.75,37.71,117.18,37.89,116.52,37.89z M115.84,31
		c-0.57,0-0.98,0.17-1.24,0.52c-0.26,0.35-0.4,0.92-0.41,1.73v0.25c0,0.9,0.13,1.55,0.4,1.94c0.27,0.39,0.69,0.59,1.28,0.59
		c1.03,0,1.54-0.85,1.54-2.54c0-0.83-0.13-1.45-0.38-1.86C116.78,31.21,116.38,31,115.84,31z"/>
	<path class="st0" d="M125.46,37.89c-1.35,0-2.41-0.37-3.17-1.12c-0.76-0.75-1.14-1.81-1.14-3.17c0-1.41,0.35-2.5,1.06-3.27
		c0.71-0.77,1.68-1.15,2.92-1.15c1.19,0,2.11,0.34,2.78,1.02c0.66,0.68,0.99,1.61,0.99,2.81v1.11h-5.42
		c0.03,0.65,0.22,1.16,0.58,1.53c0.36,0.37,0.87,0.55,1.52,0.55c0.51,0,0.99-0.05,1.44-0.16c0.45-0.11,0.92-0.27,1.41-0.5v1.78
		c-0.4,0.2-0.83,0.35-1.29,0.45C126.67,37.84,126.11,37.89,125.46,37.89z M125.13,30.8c-0.49,0-0.87,0.15-1.14,0.46
		c-0.28,0.31-0.43,0.75-0.47,1.31h3.22c-0.01-0.57-0.16-1-0.44-1.31C126,30.95,125.62,30.8,125.13,30.8z"/>
	<path class="st0" d="M136.09,37.74l-0.44-1.14h-0.06c-0.39,0.49-0.78,0.82-1.19,1.01c-0.41,0.19-0.94,0.28-1.6,0.28
		c-0.81,0-1.44-0.23-1.91-0.69c-0.46-0.46-0.7-1.12-0.7-1.97c0-0.89,0.31-1.55,0.94-1.98c0.62-0.42,1.57-0.66,2.82-0.7l1.46-0.05
		v-0.37c0-0.85-0.44-1.28-1.31-1.28c-0.67,0-1.46,0.2-2.37,0.61l-0.76-1.55c0.97-0.51,2.04-0.76,3.22-0.76
		c1.13,0,1.99,0.25,2.6,0.74c0.6,0.49,0.9,1.24,0.9,2.24v5.6H136.09z M135.42,33.84l-0.89,0.03c-0.67,0.02-1.16,0.14-1.49,0.36
		c-0.33,0.22-0.49,0.56-0.49,1.01c0,0.65,0.37,0.97,1.11,0.97c0.53,0,0.96-0.15,1.28-0.46c0.32-0.31,0.48-0.71,0.48-1.22V33.84z"/>
	<path class="st0" d="M147.82,37.74h-2.29v-4.91c0-0.61-0.11-1.06-0.32-1.37c-0.22-0.3-0.56-0.45-1.03-0.45
		c-0.64,0-1.11,0.21-1.39,0.64c-0.29,0.43-0.43,1.14-0.43,2.13v3.96h-2.29v-8.41h1.75l0.31,1.08h0.13c0.26-0.41,0.61-0.71,1.06-0.92
		c0.45-0.21,0.96-0.31,1.53-0.31c0.98,0,1.72,0.26,2.23,0.79c0.51,0.53,0.76,1.29,0.76,2.29V37.74z"/>
	<path class="st0" d="M76.79,51.91v-11h2.33v11H76.79z"/>
	<path class="st0" d="M89.47,51.91h-2.29v-4.91c0-0.61-0.11-1.06-0.32-1.37c-0.22-0.3-0.56-0.46-1.03-0.46
		c-0.64,0-1.11,0.21-1.39,0.64C84.14,46.24,84,46.96,84,47.95v3.96h-2.29v-8.41h1.75l0.31,1.08h0.13c0.26-0.41,0.61-0.71,1.06-0.92
		c0.45-0.21,0.96-0.31,1.53-0.31c0.98,0,1.72,0.26,2.23,0.79c0.51,0.53,0.76,1.29,0.76,2.29V51.91z"/>
	<path class="st0" d="M94.5,52.06c-0.99,0-1.76-0.38-2.33-1.15c-0.56-0.77-0.85-1.83-0.85-3.19c0-1.38,0.29-2.45,0.86-3.22
		c0.57-0.77,1.37-1.15,2.37-1.15c1.06,0,1.87,0.41,2.42,1.23h0.08c-0.12-0.63-0.17-1.19-0.17-1.68V40.2h2.3v11.71h-1.76l-0.44-1.09
		h-0.1C96.36,51.64,95.57,52.06,94.5,52.06z M95.3,50.23c0.59,0,1.02-0.17,1.29-0.51c0.27-0.34,0.42-0.92,0.45-1.74v-0.25
		c0-0.9-0.14-1.55-0.42-1.94c-0.28-0.39-0.73-0.59-1.36-0.59c-0.51,0-0.91,0.22-1.19,0.65c-0.28,0.43-0.43,1.06-0.43,1.89
		c0,0.83,0.14,1.45,0.43,1.86C94.36,50.02,94.77,50.23,95.3,50.23z"/>
	<path class="st0" d="M107.54,51.91l-0.31-1.08h-0.12c-0.25,0.39-0.59,0.69-1.05,0.91c-0.45,0.21-0.97,0.32-1.54,0.32
		c-0.99,0-1.73-0.26-2.23-0.79c-0.5-0.53-0.75-1.29-0.75-2.28v-5.48h2.29v4.91c0,0.61,0.11,1.06,0.32,1.37
		c0.22,0.3,0.56,0.46,1.03,0.46c0.64,0,1.11-0.21,1.39-0.64c0.29-0.43,0.43-1.14,0.43-2.13v-3.96h2.29v8.41H107.54z"/>
	<path class="st0" d="M117.58,49.41c0,0.86-0.3,1.52-0.9,1.97c-0.6,0.45-1.5,0.68-2.69,0.68c-0.61,0-1.13-0.04-1.57-0.12
		c-0.43-0.08-0.83-0.2-1.21-0.36v-1.9c0.43,0.2,0.91,0.37,1.44,0.5c0.53,0.14,1,0.2,1.41,0.2c0.83,0,1.25-0.24,1.25-0.72
		c0-0.18-0.06-0.33-0.17-0.44c-0.11-0.11-0.3-0.24-0.57-0.38c-0.27-0.14-0.63-0.31-1.08-0.5c-0.65-0.27-1.12-0.52-1.42-0.75
		c-0.3-0.23-0.52-0.5-0.66-0.79c-0.14-0.3-0.21-0.67-0.21-1.1c0-0.75,0.29-1.33,0.87-1.73c0.58-0.41,1.4-0.61,2.46-0.61
		c1.01,0,2,0.22,2.96,0.66l-0.69,1.66c-0.42-0.18-0.81-0.33-1.18-0.44c-0.37-0.12-0.74-0.17-1.12-0.17c-0.68,0-1.02,0.18-1.02,0.55
		c0,0.21,0.11,0.38,0.33,0.53c0.22,0.15,0.7,0.37,1.43,0.67c0.66,0.27,1.14,0.51,1.44,0.74c0.31,0.23,0.53,0.5,0.68,0.8
		C117.51,48.63,117.58,48.99,117.58,49.41z"/>
	<path class="st0" d="M122.91,50.23c0.4,0,0.88-0.09,1.44-0.26v1.71c-0.57,0.26-1.27,0.38-2.11,0.38c-0.92,0-1.59-0.23-2-0.7
		c-0.42-0.46-0.63-1.16-0.63-2.09v-4.06h-1.1v-0.97l1.26-0.77l0.66-1.78h1.47v1.79h2.35v1.72h-2.35v4.06c0,0.33,0.09,0.57,0.27,0.72
		C122.37,50.15,122.61,50.23,122.91,50.23z"/>
	<path class="st0" d="M130.75,43.34c0.31,0,0.57,0.02,0.77,0.07l-0.17,2.15c-0.19-0.05-0.41-0.08-0.68-0.08
		c-0.73,0-1.3,0.19-1.71,0.56c-0.41,0.38-0.61,0.9-0.61,1.58v4.28h-2.29v-8.41h1.74l0.34,1.41h0.11c0.26-0.47,0.61-0.85,1.06-1.14
		C129.75,43.48,130.23,43.34,130.75,43.34z"/>
	<path class="st0" d="M132.96,41.32c0-0.75,0.42-1.12,1.25-1.12c0.83,0,1.25,0.37,1.25,1.12c0,0.36-0.1,0.63-0.31,0.83
		c-0.21,0.2-0.52,0.3-0.94,0.3C133.37,42.45,132.96,42.07,132.96,41.32z M135.35,51.91h-2.29v-8.41h2.29V51.91z"/>
	<path class="st0" d="M143.1,51.91l-0.44-1.14h-0.06c-0.39,0.49-0.78,0.82-1.19,1.01c-0.41,0.19-0.94,0.28-1.6,0.28
		c-0.81,0-1.44-0.23-1.91-0.69c-0.46-0.46-0.7-1.12-0.7-1.97c0-0.89,0.31-1.55,0.94-1.98c0.62-0.42,1.57-0.66,2.82-0.7l1.46-0.05
		V46.3c0-0.85-0.44-1.28-1.31-1.28c-0.67,0-1.46,0.2-2.37,0.61l-0.76-1.55c0.97-0.51,2.04-0.76,3.22-0.76c1.13,0,1.99,0.25,2.6,0.74
		c0.6,0.49,0.9,1.24,0.9,2.24v5.6H143.1z M142.42,48.01l-0.89,0.03c-0.67,0.02-1.16,0.14-1.49,0.36c-0.33,0.22-0.49,0.56-0.49,1.01
		c0,0.65,0.37,0.97,1.11,0.97c0.53,0,0.96-0.15,1.28-0.46c0.32-0.31,0.48-0.71,0.48-1.22V48.01z"/>
	<path class="st0" d="M149.36,51.91h-2.29V40.2h2.29V51.91z"/>
	<path class="st0" d="M83.12,66.07h-6.33v-11h6.33v1.91h-4v2.42h3.72v1.91h-3.72v2.84h4V66.07z"/>
	<path class="st0" d="M92.77,66.07h-2.29v-4.91c0-0.61-0.1-1.06-0.3-1.37c-0.2-0.3-0.52-0.46-0.96-0.46c-0.59,0-1.01,0.22-1.28,0.65
		c-0.27,0.43-0.4,1.14-0.4,2.13v3.96h-2.29v-8.41h1.75l0.31,1.08h0.13c0.23-0.39,0.55-0.69,0.98-0.91c0.43-0.22,0.92-0.33,1.47-0.33
		c1.26,0,2.11,0.41,2.56,1.23h0.2c0.23-0.39,0.56-0.69,1-0.91c0.44-0.22,0.93-0.32,1.49-0.32c0.95,0,1.67,0.24,2.16,0.73
		c0.49,0.49,0.73,1.27,0.73,2.35v5.48h-2.3v-4.91c0-0.61-0.1-1.06-0.3-1.37c-0.2-0.3-0.52-0.46-0.96-0.46c-0.56,0-0.98,0.2-1.26,0.6
		c-0.28,0.4-0.42,1.04-0.42,1.91V66.07z"/>
	<path class="st0" d="M100.27,55.49c0-0.75,0.42-1.12,1.25-1.12c0.83,0,1.25,0.37,1.25,1.12c0,0.36-0.1,0.63-0.31,0.83
		c-0.21,0.2-0.52,0.3-0.94,0.3C100.68,56.62,100.27,56.24,100.27,55.49z M102.66,66.07h-2.29v-8.41h2.29V66.07z"/>
	<path class="st0" d="M110.94,63.58c0,0.86-0.3,1.52-0.9,1.97c-0.6,0.45-1.5,0.68-2.69,0.68c-0.61,0-1.13-0.04-1.57-0.12
		c-0.43-0.08-0.83-0.2-1.21-0.36v-1.9c0.43,0.2,0.91,0.37,1.44,0.5c0.53,0.14,1,0.2,1.41,0.2c0.83,0,1.25-0.24,1.25-0.72
		c0-0.18-0.06-0.33-0.17-0.44c-0.11-0.11-0.3-0.24-0.57-0.38c-0.27-0.14-0.63-0.31-1.08-0.5c-0.65-0.27-1.12-0.52-1.42-0.75
		c-0.3-0.23-0.52-0.5-0.66-0.79c-0.14-0.3-0.21-0.67-0.21-1.1c0-0.75,0.29-1.33,0.87-1.73c0.58-0.41,1.4-0.61,2.46-0.61
		c1.01,0,2,0.22,2.96,0.66l-0.69,1.66c-0.42-0.18-0.81-0.33-1.18-0.44c-0.37-0.12-0.74-0.17-1.12-0.17c-0.68,0-1.02,0.18-1.02,0.55
		c0,0.21,0.11,0.38,0.33,0.53c0.22,0.15,0.7,0.37,1.43,0.67c0.66,0.27,1.14,0.51,1.44,0.74c0.31,0.23,0.53,0.5,0.68,0.8
		C110.86,62.8,110.94,63.16,110.94,63.58z"/>
	<path class="st0" d="M118.59,63.58c0,0.86-0.3,1.52-0.9,1.97c-0.6,0.45-1.5,0.68-2.69,0.68c-0.61,0-1.13-0.04-1.57-0.12
		c-0.43-0.08-0.83-0.2-1.21-0.36v-1.9c0.43,0.2,0.91,0.37,1.44,0.5c0.53,0.14,1,0.2,1.41,0.2c0.83,0,1.25-0.24,1.25-0.72
		c0-0.18-0.06-0.33-0.17-0.44c-0.11-0.11-0.3-0.24-0.57-0.38c-0.27-0.14-0.63-0.31-1.08-0.5c-0.65-0.27-1.12-0.52-1.42-0.75
		c-0.3-0.23-0.52-0.5-0.66-0.79c-0.14-0.3-0.21-0.67-0.21-1.1c0-0.75,0.29-1.33,0.87-1.73c0.58-0.41,1.4-0.61,2.46-0.61
		c1.01,0,2,0.22,2.96,0.66l-0.69,1.66c-0.42-0.18-0.81-0.33-1.18-0.44c-0.37-0.12-0.74-0.17-1.12-0.17c-0.68,0-1.02,0.18-1.02,0.55
		c0,0.21,0.11,0.38,0.33,0.53c0.22,0.15,0.7,0.37,1.43,0.67c0.66,0.27,1.14,0.51,1.44,0.74c0.31,0.23,0.53,0.5,0.68,0.8
		C118.52,62.8,118.59,63.16,118.59,63.58z"/>
	<path class="st0" d="M120.29,55.49c0-0.75,0.42-1.12,1.25-1.12c0.83,0,1.25,0.37,1.25,1.12c0,0.36-0.1,0.63-0.31,0.83
		c-0.21,0.2-0.52,0.3-0.94,0.3C120.7,56.62,120.29,56.24,120.29,55.49z M122.68,66.07h-2.29v-8.41h2.29V66.07z"/>
	<path class="st0" d="M132.73,61.85c0,1.37-0.36,2.44-1.08,3.21c-0.72,0.77-1.73,1.16-3.02,1.16c-0.81,0-1.52-0.18-2.14-0.53
		c-0.62-0.35-1.09-0.86-1.42-1.52c-0.33-0.66-0.5-1.43-0.5-2.32c0-1.37,0.36-2.44,1.08-3.2c0.72-0.76,1.73-1.14,3.02-1.14
		c0.81,0,1.52,0.18,2.14,0.53c0.62,0.35,1.09,0.85,1.42,1.51C132.56,60.2,132.73,60.97,132.73,61.85z M126.92,61.85
		c0,0.83,0.14,1.46,0.41,1.89c0.27,0.43,0.72,0.64,1.33,0.64c0.61,0,1.05-0.21,1.32-0.64c0.27-0.42,0.4-1.05,0.4-1.89
		c0-0.83-0.14-1.46-0.41-1.87c-0.27-0.42-0.71-0.62-1.33-0.62c-0.61,0-1.05,0.21-1.32,0.62C127.05,60.39,126.92,61.02,126.92,61.85z
		"/>
	<path class="st0" d="M142.39,66.07h-2.29v-4.91c0-0.61-0.11-1.06-0.32-1.37c-0.22-0.3-0.56-0.46-1.03-0.46
		c-0.64,0-1.11,0.21-1.39,0.64c-0.29,0.43-0.43,1.14-0.43,2.13v3.96h-2.29v-8.41h1.75l0.31,1.08h0.13c0.26-0.41,0.61-0.71,1.06-0.92
		c0.45-0.21,0.96-0.31,1.53-0.31c0.98,0,1.72,0.26,2.23,0.79c0.51,0.53,0.76,1.29,0.76,2.29V66.07z"/>
	<path class="st0" d="M150.62,63.58c0,0.86-0.3,1.52-0.9,1.97c-0.6,0.45-1.5,0.68-2.69,0.68c-0.61,0-1.13-0.04-1.57-0.12
		c-0.43-0.08-0.84-0.2-1.21-0.36v-1.9c0.43,0.2,0.91,0.37,1.44,0.5c0.53,0.14,1,0.2,1.41,0.2c0.83,0,1.25-0.24,1.25-0.72
		c0-0.18-0.06-0.33-0.17-0.44c-0.11-0.11-0.3-0.24-0.57-0.38c-0.27-0.14-0.63-0.31-1.08-0.5c-0.65-0.27-1.12-0.52-1.42-0.75
		c-0.3-0.23-0.52-0.5-0.66-0.79c-0.14-0.3-0.21-0.67-0.21-1.1c0-0.75,0.29-1.33,0.87-1.73c0.58-0.41,1.4-0.61,2.46-0.61
		c1.01,0,2,0.22,2.96,0.66l-0.69,1.66c-0.42-0.18-0.81-0.33-1.18-0.44c-0.37-0.12-0.74-0.17-1.12-0.17c-0.68,0-1.02,0.18-1.02,0.55
		c0,0.21,0.11,0.38,0.33,0.53c0.22,0.15,0.7,0.37,1.43,0.67c0.66,0.27,1.14,0.51,1.44,0.74c0.31,0.23,0.53,0.5,0.68,0.8
		C150.55,62.8,150.62,63.16,150.62,63.58z"/>
	<path class="st0" d="M84.39,72.68c0,1.18-0.37,2.09-1.11,2.72c-0.74,0.63-1.79,0.94-3.16,0.94h-1v3.91h-2.33v-11h3.51
		c1.33,0,2.35,0.29,3.04,0.86C84.04,70.68,84.39,71.54,84.39,72.68z M79.12,74.42h0.77c0.72,0,1.25-0.14,1.61-0.42
		c0.36-0.28,0.53-0.7,0.53-1.24c0-0.55-0.15-0.95-0.45-1.21c-0.3-0.26-0.77-0.39-1.4-0.39h-1.06V74.42z"/>
	<path class="st0" d="M93.93,76.02c0,1.37-0.36,2.44-1.08,3.21c-0.72,0.77-1.73,1.16-3.02,1.16c-0.81,0-1.52-0.18-2.14-0.53
		c-0.62-0.35-1.09-0.86-1.42-1.52c-0.33-0.66-0.5-1.43-0.5-2.32c0-1.37,0.36-2.44,1.08-3.2c0.72-0.76,1.73-1.14,3.02-1.14
		c0.81,0,1.52,0.18,2.14,0.53c0.62,0.35,1.09,0.85,1.42,1.51C93.76,74.37,93.93,75.14,93.93,76.02z M88.11,76.02
		c0,0.83,0.14,1.46,0.41,1.89c0.27,0.43,0.72,0.64,1.33,0.64c0.61,0,1.05-0.21,1.32-0.64c0.27-0.42,0.4-1.05,0.4-1.89
		c0-0.83-0.14-1.46-0.41-1.87c-0.27-0.42-0.71-0.62-1.33-0.62c-0.61,0-1.05,0.21-1.32,0.62C88.24,74.56,88.11,75.19,88.11,76.02z"/>
	<path class="st0" d="M100.52,71.68c0.31,0,0.57,0.02,0.77,0.07l-0.17,2.15c-0.19-0.05-0.41-0.08-0.68-0.08
		c-0.73,0-1.3,0.19-1.71,0.56c-0.41,0.38-0.61,0.9-0.61,1.58v4.28h-2.29v-8.41h1.74l0.34,1.41h0.11c0.26-0.47,0.61-0.85,1.06-1.14
		C99.51,71.82,99.99,71.68,100.52,71.68z"/>
	<path class="st0" d="M106.36,78.57c0.4,0,0.88-0.09,1.44-0.26v1.71c-0.57,0.26-1.27,0.38-2.11,0.38c-0.92,0-1.59-0.23-2-0.7
		c-0.42-0.46-0.63-1.16-0.63-2.09v-4.06h-1.1v-0.97l1.26-0.77l0.66-1.78h1.47v1.79h2.35v1.72h-2.35v4.06c0,0.33,0.09,0.57,0.27,0.72
		C105.82,78.49,106.06,78.57,106.36,78.57z"/>
	<path class="st0" d="M114.85,80.24l-0.44-1.14h-0.06c-0.39,0.49-0.78,0.82-1.19,1.01c-0.41,0.19-0.94,0.28-1.6,0.28
		c-0.81,0-1.44-0.23-1.91-0.69c-0.46-0.46-0.7-1.12-0.7-1.97c0-0.89,0.31-1.55,0.94-1.98c0.62-0.42,1.57-0.66,2.82-0.7l1.46-0.05
		v-0.37c0-0.85-0.44-1.28-1.31-1.28c-0.67,0-1.46,0.2-2.37,0.61l-0.76-1.55c0.97-0.51,2.04-0.76,3.22-0.76
		c1.13,0,1.99,0.25,2.6,0.74c0.6,0.49,0.9,1.24,0.9,2.24v5.6H114.85z M114.17,76.35l-0.89,0.03c-0.67,0.02-1.16,0.14-1.49,0.36
		c-0.33,0.22-0.49,0.56-0.49,1.01c0,0.65,0.37,0.97,1.11,0.97c0.53,0,0.96-0.15,1.28-0.46c0.32-0.31,0.48-0.71,0.48-1.22V76.35z"/>
	<path class="st0" d="M121.11,80.24h-2.29V68.54h2.29V80.24z"/>
</g>
</svg>
